<svg width="1584" height="396" viewBox="0 0 1584 396" fill="none" xmlns="http://www.w3.org/2000/svg">
<g clip-path="url(#clip0_1914_438)">
<path d="M1584 0H0V396H1584V0Z" fill="#0D1117"/>
<mask id="mask0_1914_438" style="mask-type:alpha" maskUnits="userSpaceOnUse" x="-163" y="-130" width="1208" height="682">
<g opacity="0.1" clip-path="url(#clip1_1914_438)">
<path d="M1028.88 551.353V-129.911" stroke="#727272" stroke-dasharray="6 6"/>
<path d="M987.322 551.353V-129.911" stroke="#727272" stroke-dasharray="6 6"/>
<path d="M945.762 551.353V-129.911" stroke="#727272" stroke-dasharray="6 6"/>
<path d="M904.203 551.353V-129.911" stroke="#727272" stroke-dasharray="6 6"/>
<path d="M862.644 551.353V-129.911" stroke="#727272" stroke-dasharray="6 6"/>
<path d="M821.075 551.353V-129.911" stroke="#727272" stroke-dasharray="6 6"/>
<path d="M779.516 551.353V-129.911" stroke="#727272" stroke-dasharray="6 6"/>
<path d="M737.956 551.353V-129.911" stroke="#727272" stroke-dasharray="6 6"/>
<path d="M696.396 551.353V-129.911" stroke="#727272" stroke-dasharray="6 6"/>
<path d="M654.833 551.353V-129.911" stroke="#727272" stroke-dasharray="6 6"/>
<path d="M613.273 551.353V-129.911" stroke="#727272" stroke-dasharray="6 6"/>
<path d="M571.713 551.353V-129.911" stroke="#727272" stroke-dasharray="6 6"/>
<path d="M530.149 551.353V-129.911" stroke="#727272" stroke-dasharray="6 6"/>
<path d="M488.583 551.353V-129.911" stroke="#727272" stroke-dasharray="6 6"/>
<path d="M447.003 551.363V-129.901" stroke="#727272" stroke-dasharray="6 6"/>
<path d="M405.442 551.363V-129.901" stroke="#727272" stroke-dasharray="6 6"/>
<path d="M363.879 551.363V-129.901" stroke="#727272" stroke-dasharray="6 6"/>
<path d="M322.319 551.363V-129.901" stroke="#727272" stroke-dasharray="6 6"/>
<path d="M280.758 551.363V-129.901" stroke="#727272" stroke-dasharray="6 6"/>
<path d="M239.195 551.363V-129.901" stroke="#727272" stroke-dasharray="6 6"/>
<path d="M197.635 551.363V-129.901" stroke="#727272" stroke-dasharray="6 6"/>
<path d="M156.069 551.363L156.07 -129.901" stroke="#727272" stroke-dasharray="6 6"/>
<path d="M114.512 551.363V-129.901" stroke="#727272" stroke-dasharray="6 6"/>
<path d="M72.955 551.363V-129.901" stroke="#727272" stroke-dasharray="6 6"/>
<path d="M31.3857 551.363L31.3866 -129.901" stroke="#727272" stroke-dasharray="6 6"/>
<path d="M-162.675 355.678H1141.52" stroke="#727272" stroke-dasharray="6 6"/>
<path d="M-162.675 314.138H1141.52" stroke="#727272" stroke-dasharray="6 6"/>
<path d="M-162.675 272.595L1141.52 272.596" stroke="#727272" stroke-dasharray="6 6"/>
<path d="M-162.675 231.055H1141.52" stroke="#727272" stroke-dasharray="6 6"/>
<path d="M-162.675 189.516H1141.52" stroke="#727272" stroke-dasharray="6 6"/>
<path d="M-162.675 147.975L1141.52 147.976" stroke="#727272" stroke-dasharray="6 6"/>
<path d="M-162.675 106.434H1141.52" stroke="#727272" stroke-dasharray="6 6"/>
<path d="M-162.675 64.895H1141.52" stroke="#727272" stroke-dasharray="6 6"/>
<path d="M-162.675 23.3535L1141.52 23.3544" stroke="#727272" stroke-dasharray="6 6"/>
</g>
</mask>
<g mask="url(#mask0_1914_438)">
<ellipse cx="398.379" cy="207.923" rx="521.194" ry="308.698" fill="url(#paint0_radial_1914_438)"/>
</g>
<path d="M563.45 203.583V155.238H577.776V203.583C577.776 208.246 576.754 212.255 574.71 215.609C572.665 218.931 569.87 221.486 566.325 223.275C562.811 225.064 558.85 225.958 554.442 225.958C549.874 225.958 545.834 225.192 542.32 223.658C538.806 222.125 536.043 219.777 534.031 216.615C532.019 213.421 531.012 209.38 531.012 204.493H545.434C545.434 207.048 545.786 209.077 546.488 210.578C547.223 212.079 548.261 213.149 549.603 213.788C550.944 214.427 552.558 214.746 554.442 214.746C556.263 214.746 557.844 214.315 559.186 213.453C560.527 212.59 561.565 211.329 562.3 209.668C563.067 208.007 563.45 205.978 563.45 203.583ZM617.161 213.309V190.215C617.161 188.554 616.889 187.132 616.346 185.95C615.803 184.737 614.957 183.794 613.807 183.124C612.689 182.453 611.236 182.117 609.447 182.117C607.914 182.117 606.588 182.389 605.47 182.932C604.352 183.443 603.49 184.194 602.883 185.184C602.276 186.142 601.972 187.276 601.972 188.586H588.173C588.173 186.382 588.684 184.289 589.707 182.309C590.729 180.329 592.214 178.588 594.162 177.086C596.111 175.553 598.427 174.355 601.11 173.493C603.825 172.63 606.86 172.199 610.214 172.199C614.238 172.199 617.816 172.87 620.946 174.212C624.077 175.553 626.536 177.566 628.325 180.249C630.146 182.932 631.056 186.286 631.056 190.311V212.495C631.056 215.337 631.232 217.669 631.583 219.49C631.934 221.279 632.445 222.844 633.116 224.185V225H619.173C618.503 223.595 617.991 221.838 617.64 219.73C617.321 217.589 617.161 215.449 617.161 213.309ZM618.982 193.425L619.078 201.235H611.363C609.543 201.235 607.962 201.442 606.62 201.858C605.278 202.273 604.176 202.864 603.314 203.631C602.452 204.365 601.813 205.228 601.397 206.218C601.014 207.208 600.822 208.294 600.822 209.476C600.822 210.658 601.094 211.728 601.637 212.686C602.18 213.613 602.963 214.347 603.985 214.89C605.007 215.401 606.205 215.657 607.578 215.657C609.655 215.657 611.459 215.242 612.993 214.411C614.526 213.581 615.708 212.558 616.538 211.345C617.401 210.131 617.848 208.981 617.88 207.895L621.521 213.74C621.01 215.05 620.307 216.407 619.413 217.813C618.55 219.218 617.448 220.544 616.107 221.79C614.765 223.004 613.152 224.01 611.268 224.808C609.383 225.575 607.147 225.958 604.56 225.958C601.27 225.958 598.283 225.303 595.6 223.994C592.949 222.652 590.84 220.816 589.275 218.484C587.742 216.12 586.975 213.437 586.975 210.434C586.975 207.719 587.487 205.308 588.509 203.199C589.531 201.091 591.032 199.318 593.013 197.881C595.025 196.412 597.532 195.31 600.535 194.575C603.538 193.808 607.019 193.425 610.98 193.425H618.982ZM658.558 214.938L670.058 173.158H684.48L666.991 225H658.271L658.558 214.938ZM650.653 173.158L662.2 214.986L662.439 225H653.671L636.183 173.158H650.653ZM717.875 213.309V190.215C717.875 188.554 717.604 187.132 717.061 185.95C716.518 184.737 715.671 183.794 714.521 183.124C713.403 182.453 711.95 182.117 710.161 182.117C708.628 182.117 707.302 182.389 706.184 182.932C705.066 183.443 704.204 184.194 703.597 185.184C702.99 186.142 702.687 187.276 702.687 188.586H688.888C688.888 186.382 689.399 184.289 690.421 182.309C691.443 180.329 692.928 178.588 694.877 177.086C696.825 175.553 699.141 174.355 701.824 173.493C704.539 172.63 707.574 172.199 710.928 172.199C714.953 172.199 718.53 172.87 721.661 174.212C724.791 175.553 727.25 177.566 729.039 180.249C730.86 182.932 731.77 186.286 731.77 190.311V212.495C731.77 215.337 731.946 217.669 732.297 219.49C732.649 221.279 733.16 222.844 733.831 224.185V225H719.888C719.217 223.595 718.706 221.838 718.354 219.73C718.035 217.589 717.875 215.449 717.875 213.309ZM719.696 193.425L719.792 201.235H712.078C710.257 201.235 708.676 201.442 707.334 201.858C705.993 202.273 704.891 202.864 704.028 203.631C703.166 204.365 702.527 205.228 702.112 206.218C701.728 207.208 701.537 208.294 701.537 209.476C701.537 210.658 701.808 211.728 702.351 212.686C702.894 213.613 703.677 214.347 704.699 214.89C705.721 215.401 706.919 215.657 708.293 215.657C710.369 215.657 712.174 215.242 713.707 214.411C715.24 213.581 716.422 212.558 717.252 211.345C718.115 210.131 718.562 208.981 718.594 207.895L722.235 213.74C721.724 215.05 721.022 216.407 720.127 217.813C719.265 219.218 718.163 220.544 716.821 221.79C715.48 223.004 713.867 224.01 711.982 224.808C710.097 225.575 707.861 225.958 705.274 225.958C701.984 225.958 698.997 225.303 696.314 223.994C693.663 222.652 691.555 220.816 689.99 218.484C688.456 216.12 687.69 213.437 687.69 210.434C687.69 207.719 688.201 205.308 689.223 203.199C690.245 201.091 691.746 199.318 693.727 197.881C695.739 196.412 698.247 195.31 701.249 194.575C704.252 193.808 707.734 193.425 711.694 193.425H719.696ZM770.437 210.674C770.437 209.684 770.149 208.789 769.574 207.991C768.999 207.192 767.929 206.457 766.364 205.787C764.831 205.084 762.611 204.445 759.704 203.87C757.085 203.295 754.641 202.576 752.373 201.714C750.137 200.82 748.189 199.75 746.528 198.504C744.899 197.258 743.621 195.789 742.695 194.096C741.768 192.371 741.305 190.406 741.305 188.202C741.305 186.03 741.768 183.986 742.695 182.069C743.653 180.153 745.01 178.46 746.767 176.991C748.556 175.489 750.728 174.323 753.283 173.493C755.871 172.63 758.778 172.199 762.004 172.199C766.508 172.199 770.373 172.918 773.599 174.355C776.857 175.793 779.348 177.773 781.073 180.297C782.83 182.788 783.709 185.631 783.709 188.825H769.909C769.909 187.484 769.622 186.286 769.047 185.232C768.504 184.146 767.642 183.299 766.46 182.692C765.31 182.053 763.808 181.734 761.956 181.734C760.423 181.734 759.097 182.006 757.979 182.549C756.861 183.06 755.999 183.762 755.392 184.657C754.817 185.519 754.529 186.477 754.529 187.532C754.529 188.33 754.689 189.049 755.008 189.688C755.36 190.295 755.919 190.854 756.685 191.365C757.452 191.876 758.442 192.355 759.656 192.802C760.902 193.217 762.435 193.601 764.256 193.952C767.993 194.719 771.331 195.725 774.27 196.971C777.208 198.184 779.54 199.845 781.265 201.954C782.99 204.03 783.852 206.761 783.852 210.147C783.852 212.447 783.341 214.555 782.319 216.471C781.297 218.388 779.828 220.065 777.911 221.502C775.995 222.908 773.695 224.01 771.012 224.808C768.36 225.575 765.374 225.958 762.052 225.958C757.228 225.958 753.14 225.096 749.786 223.371C746.464 221.646 743.94 219.458 742.215 216.807C740.522 214.124 739.676 211.377 739.676 208.566H752.756C752.82 210.45 753.299 211.968 754.194 213.117C755.12 214.267 756.286 215.098 757.692 215.609C759.129 216.12 760.678 216.376 762.339 216.376C764.128 216.376 765.613 216.136 766.795 215.657C767.977 215.146 768.871 214.475 769.478 213.644C770.117 212.782 770.437 211.792 770.437 210.674ZM814.23 215.178C815.923 215.178 817.424 214.858 818.733 214.219C820.043 213.549 821.065 212.622 821.8 211.44C822.567 210.227 822.966 208.805 822.998 207.176H835.982C835.95 210.818 834.976 214.06 833.06 216.903C831.143 219.714 828.572 221.934 825.346 223.563C822.119 225.16 818.51 225.958 814.517 225.958C810.492 225.958 806.979 225.287 803.976 223.946C801.005 222.604 798.53 220.752 796.549 218.388C794.569 215.992 793.084 213.213 792.093 210.051C791.103 206.857 790.608 203.439 790.608 199.797V198.408C790.608 194.735 791.103 191.317 792.093 188.154C793.084 184.96 794.569 182.181 796.549 179.817C798.53 177.422 801.005 175.553 803.976 174.212C806.947 172.87 810.428 172.199 814.421 172.199C818.67 172.199 822.391 173.014 825.585 174.643C828.811 176.272 831.335 178.604 833.155 181.638C835.008 184.641 835.95 188.202 835.982 192.323H822.998C822.966 190.598 822.598 189.033 821.896 187.627C821.225 186.222 820.235 185.104 818.925 184.273C817.647 183.411 816.066 182.98 814.182 182.98C812.169 182.98 810.524 183.411 809.247 184.273C807.969 185.104 806.979 186.254 806.276 187.723C805.573 189.161 805.078 190.806 804.791 192.658C804.535 194.479 804.407 196.396 804.407 198.408V199.797C804.407 201.81 804.535 203.742 804.791 205.595C805.046 207.448 805.525 209.093 806.228 210.53C806.963 211.968 807.969 213.101 809.247 213.932C810.524 214.762 812.185 215.178 814.23 215.178ZM857.783 184.465V225H843.984V173.158H856.968L857.783 184.465ZM873.403 172.822L873.163 185.615C872.492 185.519 871.678 185.439 870.72 185.375C869.793 185.28 868.947 185.232 868.18 185.232C866.232 185.232 864.539 185.487 863.101 185.998C861.696 186.477 860.514 187.196 859.556 188.154C858.629 189.113 857.927 190.279 857.448 191.652C857 193.026 856.745 194.591 856.681 196.348L853.902 195.485C853.902 192.131 854.237 189.049 854.908 186.238C855.579 183.395 856.553 180.92 857.831 178.811C859.141 176.703 860.738 175.074 862.622 173.924C864.507 172.774 866.663 172.199 869.091 172.199C869.857 172.199 870.64 172.263 871.438 172.391C872.237 172.487 872.892 172.63 873.403 172.822ZM894.485 173.158V225H880.638V173.158H894.485ZM879.775 159.646C879.775 157.634 880.478 155.973 881.884 154.663C883.289 153.353 885.174 152.698 887.537 152.698C889.869 152.698 891.738 153.353 893.143 154.663C894.581 155.973 895.299 157.634 895.299 159.646C895.299 161.658 894.581 163.319 893.143 164.629C891.738 165.939 889.869 166.593 887.537 166.593C885.174 166.593 883.289 165.939 881.884 164.629C880.478 163.319 879.775 161.658 879.775 159.646ZM919.687 183.124V244.932H905.888V173.158H918.681L919.687 183.124ZM952.508 198.504V199.51C952.508 203.279 952.061 206.777 951.167 210.003C950.304 213.229 949.026 216.04 947.333 218.436C945.641 220.8 943.532 222.652 941.009 223.994C938.517 225.303 935.643 225.958 932.384 225.958C929.222 225.958 926.475 225.319 924.143 224.042C921.812 222.764 919.847 220.975 918.25 218.675C916.685 216.344 915.423 213.644 914.465 210.578C913.506 207.512 912.772 204.221 912.261 200.708V198.073C912.772 194.303 913.506 190.854 914.465 187.723C915.423 184.561 916.685 181.83 918.25 179.53C919.847 177.198 921.796 175.393 924.095 174.116C926.427 172.838 929.158 172.199 932.289 172.199C935.579 172.199 938.469 172.822 940.961 174.068C943.484 175.314 945.593 177.102 947.286 179.434C949.01 181.766 950.304 184.545 951.167 187.771C952.061 190.997 952.508 194.575 952.508 198.504ZM938.661 199.51V198.504C938.661 196.3 938.469 194.271 938.086 192.419C937.735 190.534 937.16 188.889 936.361 187.484C935.595 186.078 934.572 184.992 933.295 184.226C932.049 183.427 930.532 183.028 928.743 183.028C926.858 183.028 925.245 183.331 923.904 183.938C922.594 184.545 921.524 185.423 920.694 186.573C919.863 187.723 919.24 189.097 918.825 190.694C918.41 192.291 918.154 194.096 918.058 196.108V202.768C918.218 205.132 918.665 207.256 919.4 209.141C920.135 210.993 921.268 212.463 922.802 213.549C924.335 214.635 926.347 215.178 928.839 215.178C930.66 215.178 932.193 214.778 933.439 213.98C934.684 213.149 935.69 212.015 936.457 210.578C937.256 209.141 937.815 207.48 938.134 205.595C938.485 203.71 938.661 201.682 938.661 199.51ZM986.479 173.158V182.932H956.293V173.158H986.479ZM963.768 160.365H977.567V209.38C977.567 210.881 977.759 212.031 978.142 212.83C978.557 213.629 979.164 214.188 979.963 214.507C980.761 214.794 981.767 214.938 982.981 214.938C983.844 214.938 984.61 214.906 985.281 214.842C985.984 214.746 986.575 214.651 987.054 214.555L987.102 224.713C985.92 225.096 984.642 225.399 983.269 225.623C981.895 225.846 980.378 225.958 978.717 225.958C975.682 225.958 973.031 225.463 970.763 224.473C968.527 223.451 966.802 221.822 965.589 219.586C964.375 217.35 963.768 214.411 963.768 210.77V160.365Z" fill="#E1E1E6"/>
<g clip-path="url(#clip2_1914_438)">
<path d="M1044.69 135H1021.31C1015.62 135 1011 139.617 1011 145.312V168.688C1011 174.383 1015.62 179 1021.31 179H1044.69C1050.38 179 1055 174.383 1055 168.688V145.312C1055 139.617 1050.38 135 1044.69 135Z" fill="#161A20"/>
<path d="M1018.43 163.488L1021.8 161.451C1022.45 162.602 1023.04 163.577 1024.46 163.577C1025.82 163.577 1026.67 163.045 1026.67 160.978V146.919H1030.81V161.037C1030.81 165.319 1028.3 167.269 1024.64 167.269C1021.33 167.269 1019.41 165.556 1018.43 163.488M1033.06 163.045L1036.42 161.096C1037.31 162.543 1038.46 163.607 1040.5 163.607C1042.21 163.607 1043.3 162.75 1043.3 161.569C1043.3 160.151 1042.18 159.649 1040.29 158.822L1039.26 158.379C1036.28 157.109 1034.3 155.514 1034.3 152.147C1034.3 149.046 1036.66 146.683 1040.35 146.683C1042.98 146.683 1044.87 147.598 1046.23 149.991L1043.01 152.058C1042.3 150.788 1041.53 150.286 1040.35 150.286C1039.14 150.286 1038.37 151.054 1038.37 152.058C1038.37 153.299 1039.14 153.801 1040.91 154.569L1041.95 155.012C1045.46 156.518 1047.44 158.054 1047.44 161.509C1047.44 165.231 1044.52 167.269 1040.59 167.269C1036.75 167.269 1034.27 165.438 1033.06 163.045Z" fill="#F0DB4F"/>
</g>
<path d="M573.746 230.094C574.189 230.094 574.664 230.146 575.172 230.25C575.693 230.341 576.174 230.504 576.617 230.738C577.06 230.96 577.424 231.266 577.711 231.656C577.997 232.034 578.141 232.509 578.141 233.082C578.141 233.785 577.932 234.423 577.516 234.996C577.112 235.569 576.539 236.064 575.797 236.48C575.055 236.884 574.163 237.203 573.121 237.438C572.092 237.659 570.953 237.77 569.703 237.77C568.297 237.77 566.773 237.672 565.133 237.477C564.833 238.414 564.605 239.462 564.449 240.621C564.306 241.78 564.228 243.069 564.215 244.488C564.71 244.475 565.211 244.469 565.719 244.469C566.24 244.456 566.773 244.449 567.32 244.449C568.049 244.449 568.785 244.462 569.527 244.488C570.27 244.501 571.018 244.521 571.773 244.547C571.995 244.56 572.164 244.645 572.281 244.801C572.411 244.944 572.477 245.113 572.477 245.309C572.477 245.517 572.405 245.686 572.262 245.816C572.118 245.947 571.949 246.012 571.754 246.012C571.012 246.012 570.27 245.999 569.527 245.973C568.798 245.947 568.076 245.934 567.359 245.934C566.812 245.934 566.279 245.94 565.758 245.953C565.237 245.953 564.723 245.96 564.215 245.973C564.215 246.155 564.215 246.331 564.215 246.5C564.228 246.669 564.234 246.845 564.234 247.027C564.234 249.059 563.928 250.868 563.316 252.457C562.704 254.033 561.806 255.361 560.621 256.441C559.449 257.522 558.004 258.342 556.285 258.902C554.566 259.462 552.594 259.742 550.367 259.742C548.727 259.742 547.268 259.592 545.992 259.293C544.729 259.007 543.616 258.622 542.652 258.141C541.702 257.659 540.882 257.118 540.191 256.52C539.514 255.908 538.948 255.296 538.492 254.684C538.036 254.059 537.672 253.46 537.398 252.887C537.125 252.301 536.923 251.799 536.793 251.383C536.78 251.344 536.767 251.311 536.754 251.285C536.754 251.246 536.754 251.207 536.754 251.168C536.754 250.973 536.826 250.803 536.969 250.66C537.112 250.504 537.294 250.426 537.516 250.426C537.672 250.426 537.809 250.471 537.926 250.562C538.056 250.654 538.147 250.777 538.199 250.934C538.316 251.298 538.492 251.734 538.727 252.242C538.961 252.75 539.28 253.277 539.684 253.824C540.1 254.358 540.608 254.892 541.207 255.426C541.819 255.96 542.555 256.435 543.414 256.852C544.286 257.268 545.289 257.607 546.422 257.867C547.568 258.128 548.883 258.258 550.367 258.258C554.456 258.258 557.542 257.307 559.625 255.406C561.721 253.505 562.77 250.699 562.77 246.988C562.77 246.832 562.763 246.676 562.75 246.52C562.75 246.35 562.75 246.188 562.75 246.031C561.435 246.083 560.224 246.148 559.117 246.227C558.01 246.292 557.04 246.363 556.207 246.441C555.387 246.507 554.723 246.565 554.215 246.617C553.707 246.656 553.395 246.676 553.277 246.676C553.056 246.676 552.861 246.617 552.691 246.5C552.522 246.37 552.438 246.181 552.438 245.934C552.438 245.751 552.503 245.595 552.633 245.465C552.763 245.322 552.919 245.237 553.102 245.211C553.115 245.211 553.362 245.185 553.844 245.133C554.339 245.081 555.016 245.022 555.875 244.957C556.734 244.879 557.75 244.807 558.922 244.742C560.094 244.664 561.37 244.599 562.75 244.547C562.776 241.669 563.076 239.247 563.648 237.281C562.229 237.073 560.784 236.826 559.312 236.539C557.841 236.24 556.376 235.927 554.918 235.602C553.46 235.276 552.021 234.957 550.602 234.645C549.195 234.319 547.841 234.026 546.539 233.766C545.237 233.505 544.013 233.297 542.867 233.141C541.721 232.984 540.68 232.906 539.742 232.906C538.427 232.906 537.203 233.043 536.07 233.316C534.938 233.577 533.954 233.961 533.121 234.469C532.301 234.977 531.65 235.602 531.168 236.344C530.699 237.073 530.465 237.906 530.465 238.844C530.465 239.456 530.576 240.009 530.797 240.504C531.031 240.986 531.292 241.402 531.578 241.754C531.865 242.092 532.132 242.359 532.379 242.555C532.626 242.737 532.763 242.835 532.789 242.848C532.906 242.913 532.991 243.004 533.043 243.121C533.095 243.238 533.121 243.355 533.121 243.473C533.121 243.694 533.043 243.876 532.887 244.02C532.743 244.15 532.581 244.215 532.398 244.215C532.255 244.215 532.118 244.169 531.988 244.078C531.676 243.87 531.344 243.596 530.992 243.258C530.641 242.919 530.315 242.535 530.016 242.105C529.729 241.663 529.488 241.168 529.293 240.621C529.098 240.074 529 239.482 529 238.844C529 237.672 529.273 236.63 529.82 235.719C530.38 234.807 531.142 234.033 532.105 233.395C533.069 232.757 534.202 232.275 535.504 231.949C536.819 231.611 538.238 231.441 539.762 231.441C540.66 231.441 541.682 231.526 542.828 231.695C543.974 231.852 545.204 232.06 546.52 232.32C547.848 232.581 549.234 232.874 550.68 233.199C552.138 233.525 553.622 233.857 555.133 234.195C556.643 234.521 558.16 234.833 559.684 235.133C561.207 235.432 562.698 235.686 564.156 235.895C564.521 234.879 565.042 234.007 565.719 233.277C566.409 232.535 567.19 231.93 568.062 231.461C568.935 230.992 569.859 230.647 570.836 230.426C571.826 230.204 572.796 230.094 573.746 230.094ZM576.656 233.043C576.656 232.73 576.552 232.483 576.344 232.301C576.148 232.105 575.901 231.956 575.602 231.852C575.302 231.734 574.983 231.656 574.645 231.617C574.319 231.578 574.02 231.559 573.746 231.559C573.121 231.559 572.424 231.624 571.656 231.754C570.901 231.884 570.146 232.118 569.391 232.457C568.648 232.796 567.945 233.258 567.281 233.844C566.63 234.43 566.096 235.178 565.68 236.09C567.125 236.246 568.46 236.324 569.684 236.324C570.686 236.324 571.611 236.246 572.457 236.09C573.316 235.921 574.052 235.693 574.664 235.406C575.289 235.12 575.777 234.775 576.129 234.371C576.48 233.967 576.656 233.525 576.656 233.043ZM579.098 256.852C578.772 256.852 578.486 256.826 578.238 256.773C578.043 257.164 577.809 257.529 577.535 257.867C577.262 258.193 576.943 258.479 576.578 258.727C576.227 258.974 575.829 259.169 575.387 259.312C574.944 259.456 574.462 259.527 573.941 259.527C573.329 259.527 572.77 259.417 572.262 259.195C571.754 258.987 571.311 258.694 570.934 258.316C570.556 257.926 570.263 257.464 570.055 256.93C569.846 256.383 569.742 255.784 569.742 255.133C569.742 254.299 569.892 253.577 570.191 252.965C570.491 252.34 570.836 251.826 571.227 251.422C571.617 251.005 572.008 250.699 572.398 250.504C572.789 250.296 573.082 250.191 573.277 250.191C573.499 250.191 573.661 250.25 573.766 250.367C573.883 250.484 573.941 250.641 573.941 250.836C573.941 251.057 573.87 251.227 573.727 251.344C573.596 251.448 573.427 251.552 573.219 251.656C573.01 251.76 572.789 251.91 572.555 252.105C572.32 252.288 572.099 252.522 571.891 252.809C571.695 253.095 571.533 253.434 571.402 253.824C571.272 254.215 571.207 254.651 571.207 255.133C571.207 255.562 571.272 255.966 571.402 256.344C571.533 256.708 571.721 257.027 571.969 257.301C572.216 257.561 572.509 257.77 572.848 257.926C573.186 258.069 573.564 258.141 573.98 258.141C574.723 258.141 575.335 257.971 575.816 257.633C576.311 257.281 576.689 256.839 576.949 256.305C576.181 255.901 575.549 255.328 575.055 254.586C574.56 253.844 574.312 253.01 574.312 252.086C574.312 251.344 574.488 250.738 574.84 250.27C575.204 249.801 575.68 249.566 576.266 249.566C576.617 249.566 576.949 249.651 577.262 249.82C577.574 249.99 577.848 250.257 578.082 250.621C578.329 250.986 578.525 251.454 578.668 252.027C578.811 252.6 578.883 253.284 578.883 254.078C578.883 254.495 578.831 254.931 578.727 255.387C578.805 255.4 578.883 255.406 578.961 255.406C579.039 255.406 579.124 255.406 579.215 255.406C579.658 255.406 580.055 255.354 580.406 255.25C580.758 255.146 581.077 254.99 581.363 254.781C581.65 254.573 581.904 254.306 582.125 253.98C582.359 253.655 582.581 253.277 582.789 252.848C582.828 252.77 582.913 252.698 583.043 252.633C583.173 252.555 583.303 252.516 583.434 252.516C583.603 252.516 583.759 252.587 583.902 252.73C584.059 252.861 584.137 253.036 584.137 253.258C584.137 253.362 584.111 253.479 584.059 253.609C584.007 253.727 583.954 253.837 583.902 253.941C583.681 254.332 583.421 254.71 583.121 255.074C582.835 255.426 582.49 255.738 582.086 256.012C581.695 256.272 581.253 256.48 580.758 256.637C580.263 256.793 579.71 256.865 579.098 256.852ZM575.758 251.93C575.758 252.177 575.79 252.438 575.855 252.711C575.921 252.984 576.018 253.258 576.148 253.531C576.292 253.792 576.461 254.046 576.656 254.293C576.865 254.527 577.105 254.729 577.379 254.898C577.418 254.625 577.438 254.358 577.438 254.098C577.438 253.746 577.411 253.388 577.359 253.023C577.307 252.659 577.229 252.327 577.125 252.027C577.034 251.715 576.917 251.467 576.773 251.285C576.63 251.09 576.461 250.992 576.266 250.992C576.188 250.992 576.083 251.051 575.953 251.168C575.823 251.285 575.758 251.539 575.758 251.93ZM584.801 250.973C584.749 251.324 584.684 251.656 584.605 251.969C584.527 252.268 584.449 252.535 584.371 252.77C584.306 252.991 584.247 253.173 584.195 253.316C584.143 253.46 584.111 253.538 584.098 253.551C583.967 253.85 583.74 254 583.414 254C583.232 254 583.062 253.935 582.906 253.805C582.75 253.661 582.672 253.486 582.672 253.277C582.672 253.199 582.685 253.141 582.711 253.102C582.737 253.062 582.776 252.984 582.828 252.867C582.88 252.75 582.945 252.555 583.023 252.281C583.102 252.008 583.199 251.585 583.316 251.012C583.095 251.012 582.867 251.005 582.633 250.992C582.398 250.979 582.184 250.934 581.988 250.855C581.78 250.777 581.611 250.654 581.48 250.484C581.35 250.315 581.285 250.081 581.285 249.781C581.285 249.56 581.35 249.26 581.48 248.883C581.598 248.505 581.76 248.134 581.969 247.77C582.177 247.405 582.411 247.092 582.672 246.832C582.932 246.559 583.193 246.422 583.453 246.422C583.753 246.422 583.993 246.533 584.176 246.754C584.371 246.975 584.521 247.249 584.625 247.574C584.729 247.887 584.801 248.219 584.84 248.57C584.892 248.922 584.918 249.228 584.918 249.488C585.139 249.488 585.354 249.488 585.562 249.488C585.784 249.475 585.992 249.469 586.188 249.469C586.93 249.469 587.496 249.632 587.887 249.957C588.277 250.283 588.473 250.816 588.473 251.559C588.473 251.858 588.453 252.171 588.414 252.496C588.375 252.822 588.329 253.16 588.277 253.512C588.225 253.85 588.18 254.189 588.141 254.527C588.102 254.866 588.082 255.198 588.082 255.523C588.082 255.992 588.147 256.383 588.277 256.695C588.408 256.995 588.57 257.236 588.766 257.418C588.961 257.6 589.169 257.73 589.391 257.809C589.612 257.874 589.814 257.906 589.996 257.906C590.556 257.906 591.083 257.724 591.578 257.359C592.073 256.995 592.529 256.559 592.945 256.051C593.362 255.53 593.733 254.983 594.059 254.41C594.397 253.837 594.677 253.336 594.898 252.906C594.964 252.789 595.055 252.698 595.172 252.633C595.289 252.568 595.413 252.535 595.543 252.535C595.777 252.535 595.96 252.613 596.09 252.77C596.22 252.913 596.285 253.076 596.285 253.258C596.285 253.388 596.259 253.505 596.207 253.609C595.908 254.143 595.556 254.749 595.152 255.426C594.762 256.09 594.312 256.715 593.805 257.301C593.297 257.887 592.724 258.382 592.086 258.785C591.461 259.189 590.771 259.391 590.016 259.391C589.547 259.391 589.104 259.299 588.688 259.117C588.271 258.948 587.906 258.701 587.594 258.375C587.294 258.036 587.053 257.626 586.871 257.145C586.689 256.65 586.598 256.096 586.598 255.484C586.598 254.833 586.663 254.189 586.793 253.551C586.923 252.9 586.988 252.281 586.988 251.695C586.988 251.448 586.93 251.266 586.812 251.148C586.708 251.018 586.467 250.953 586.09 250.953C585.908 250.953 585.706 250.953 585.484 250.953C585.276 250.953 585.048 250.96 584.801 250.973ZM583.492 249.527C583.492 249.436 583.486 249.319 583.473 249.176C583.473 249.02 583.46 248.87 583.434 248.727C583.421 248.583 583.395 248.46 583.355 248.355C583.329 248.251 583.297 248.199 583.258 248.199C583.219 248.199 583.167 248.251 583.102 248.355C583.049 248.447 582.991 248.564 582.926 248.707C582.861 248.837 582.802 248.98 582.75 249.137C582.698 249.293 582.659 249.423 582.633 249.527H583.492ZM599.41 257.262C599.605 256.871 599.853 256.389 600.152 255.816C600.465 255.23 600.784 254.645 601.109 254.059C601.448 253.473 601.773 252.919 602.086 252.398C602.411 251.878 602.685 251.48 602.906 251.207C603.284 250.751 603.674 250.426 604.078 250.23C604.482 250.035 604.853 249.938 605.191 249.938C605.53 249.938 605.816 250.009 606.051 250.152C606.298 250.296 606.5 250.491 606.656 250.738C606.812 250.973 606.93 251.253 607.008 251.578C607.086 251.891 607.125 252.229 607.125 252.594C607.125 252.802 607.112 253.076 607.086 253.414C607.073 253.753 607.053 254.117 607.027 254.508C607.014 254.898 606.995 255.302 606.969 255.719C606.956 256.135 606.943 256.526 606.93 256.891C607.125 256.5 607.346 256.07 607.594 255.602C607.841 255.12 608.089 254.645 608.336 254.176C608.596 253.707 608.844 253.271 609.078 252.867C609.312 252.451 609.527 252.112 609.723 251.852C610.283 251.083 610.803 250.569 611.285 250.309C611.78 250.048 612.216 249.918 612.594 249.918C613.036 249.918 613.401 250.003 613.688 250.172C613.974 250.328 614.195 250.536 614.352 250.797C614.521 251.044 614.638 251.324 614.703 251.637C614.768 251.949 614.801 252.249 614.801 252.535C614.801 252.978 614.768 253.44 614.703 253.922C614.638 254.404 614.605 254.977 614.605 255.641C614.605 255.914 614.618 256.188 614.645 256.461C614.671 256.734 614.723 256.975 614.801 257.184C614.892 257.392 615.029 257.561 615.211 257.691C615.393 257.822 615.641 257.887 615.953 257.887C616.292 257.887 616.624 257.802 616.949 257.633C617.275 257.451 617.587 257.216 617.887 256.93C618.186 256.643 618.466 256.318 618.727 255.953C619 255.589 619.247 255.224 619.469 254.859C619.69 254.495 619.885 254.15 620.055 253.824C620.224 253.486 620.361 253.199 620.465 252.965C620.53 252.822 620.621 252.711 620.738 252.633C620.855 252.555 620.986 252.516 621.129 252.516C621.35 252.516 621.526 252.6 621.656 252.77C621.799 252.926 621.871 253.095 621.871 253.277C621.871 253.368 621.852 253.46 621.812 253.551C621.76 253.655 621.656 253.876 621.5 254.215C621.344 254.54 621.135 254.918 620.875 255.348C620.615 255.764 620.309 256.207 619.957 256.676C619.618 257.145 619.241 257.581 618.824 257.984C618.408 258.375 617.958 258.701 617.477 258.961C616.995 259.208 616.487 259.332 615.953 259.332C615.38 259.332 614.911 259.228 614.547 259.02C614.195 258.824 613.909 258.557 613.688 258.219C613.479 257.88 613.336 257.49 613.258 257.047C613.18 256.604 613.141 256.142 613.141 255.66C613.141 255.022 613.173 254.436 613.238 253.902C613.303 253.355 613.336 252.932 613.336 252.633C613.336 252.307 613.303 252.06 613.238 251.891C613.186 251.721 613.115 251.604 613.023 251.539C612.945 251.461 612.867 251.422 612.789 251.422C612.711 251.409 612.652 251.402 612.613 251.402C612.301 251.402 611.969 251.578 611.617 251.93C611.279 252.268 610.927 252.724 610.562 253.297C610.198 253.87 609.82 254.521 609.43 255.25C609.052 255.979 608.668 256.721 608.277 257.477C608.056 257.893 607.867 258.238 607.711 258.512C607.568 258.785 607.424 259 607.281 259.156C607.151 259.312 607.021 259.423 606.891 259.488C606.76 259.553 606.617 259.586 606.461 259.586C606.122 259.586 605.862 259.469 605.68 259.234C605.51 259 605.426 258.694 605.426 258.316C605.426 258.121 605.432 257.861 605.445 257.535C605.458 257.21 605.471 256.852 605.484 256.461C605.497 256.07 605.517 255.667 605.543 255.25C605.569 254.833 605.589 254.436 605.602 254.059C605.615 253.668 605.628 253.323 605.641 253.023C605.654 252.724 605.66 252.496 605.66 252.34C605.66 252.001 605.602 251.76 605.484 251.617C605.367 251.461 605.23 251.383 605.074 251.383C604.931 251.383 604.768 251.435 604.586 251.539C604.417 251.643 604.215 251.845 603.98 252.145C603.798 252.379 603.564 252.724 603.277 253.18C603.004 253.622 602.711 254.117 602.398 254.664C602.086 255.211 601.773 255.771 601.461 256.344C601.161 256.917 600.901 257.431 600.68 257.887C600.406 258.434 600.133 258.805 599.859 259C599.586 259.208 599.319 259.312 599.059 259.312C598.681 259.312 598.401 259.202 598.219 258.98C598.036 258.746 597.945 258.44 597.945 258.062C597.945 258.023 597.952 257.789 597.965 257.359C597.991 256.93 598.017 256.409 598.043 255.797C598.069 255.172 598.095 254.508 598.121 253.805C598.16 253.102 598.193 252.444 598.219 251.832C598.232 251.507 598.219 251.207 598.18 250.934C598.141 250.66 598.089 250.497 598.023 250.445C597.919 250.471 597.711 250.712 597.398 251.168C597.099 251.624 596.715 252.418 596.246 253.551C596.181 253.694 596.083 253.805 595.953 253.883C595.823 253.961 595.686 254 595.543 254C595.322 254 595.146 253.928 595.016 253.785C594.885 253.629 594.82 253.453 594.82 253.258C594.82 253.167 594.84 253.069 594.879 252.965C595.465 251.572 596.025 250.549 596.559 249.898C597.092 249.234 597.613 248.902 598.121 248.902C598.421 248.902 598.668 248.974 598.863 249.117C599.072 249.247 599.234 249.423 599.352 249.645C599.469 249.853 599.553 250.094 599.605 250.367C599.658 250.641 599.684 250.908 599.684 251.168C599.684 252.327 599.651 253.388 599.586 254.352C599.534 255.315 599.475 256.285 599.41 257.262ZM635.582 253.551C635.53 253.655 635.419 253.876 635.25 254.215C635.094 254.54 634.885 254.918 634.625 255.348C634.378 255.777 634.085 256.227 633.746 256.695C633.408 257.164 633.03 257.594 632.613 257.984C632.197 258.375 631.747 258.701 631.266 258.961C630.784 259.208 630.276 259.332 629.742 259.332C628.987 259.332 628.349 259.091 627.828 258.609C627.32 258.128 626.949 257.522 626.715 256.793C626.272 257.535 625.745 258.128 625.133 258.57C624.521 259 623.909 259.215 623.297 259.215C622.815 259.215 622.379 259.13 621.988 258.961C621.598 258.779 621.266 258.531 620.992 258.219C620.719 257.893 620.504 257.516 620.348 257.086C620.204 256.656 620.133 256.188 620.133 255.68C620.133 254.664 620.302 253.772 620.641 253.004C620.992 252.223 621.435 251.572 621.969 251.051C622.503 250.53 623.089 250.139 623.727 249.879C624.378 249.618 625.003 249.488 625.602 249.488C626.005 249.488 626.376 249.547 626.715 249.664C627.053 249.768 627.34 249.885 627.574 250.016C627.822 250.146 628.01 250.27 628.141 250.387C628.271 250.491 628.342 250.549 628.355 250.562C628.499 250.732 628.57 250.908 628.57 251.09C628.57 251.285 628.499 251.461 628.355 251.617C628.212 251.76 628.043 251.832 627.848 251.832C627.639 251.832 627.464 251.76 627.32 251.617C627.294 251.591 627.236 251.546 627.145 251.48C627.053 251.402 626.93 251.324 626.773 251.246C626.617 251.168 626.428 251.103 626.207 251.051C625.999 250.986 625.758 250.953 625.484 250.953C625.081 250.953 624.651 251.044 624.195 251.227C623.74 251.409 623.323 251.695 622.945 252.086C622.568 252.464 622.249 252.945 621.988 253.531C621.741 254.104 621.617 254.788 621.617 255.582C621.617 255.829 621.643 256.083 621.695 256.344C621.747 256.591 621.839 256.819 621.969 257.027C622.099 257.236 622.275 257.405 622.496 257.535C622.717 257.665 622.991 257.73 623.316 257.73C623.551 257.73 623.818 257.652 624.117 257.496C624.43 257.34 624.723 257.099 624.996 256.773C625.283 256.448 625.536 256.038 625.758 255.543C625.992 255.048 626.155 254.462 626.246 253.785C626.272 253.603 626.357 253.453 626.5 253.336C626.643 253.206 626.812 253.141 627.008 253.141C627.19 253.141 627.346 253.212 627.477 253.355C627.62 253.499 627.698 253.661 627.711 253.844C627.724 254.091 627.75 254.443 627.789 254.898C627.828 255.341 627.913 255.784 628.043 256.227C628.186 256.669 628.395 257.053 628.668 257.379C628.941 257.704 629.319 257.867 629.801 257.867C630.113 257.867 630.419 257.783 630.719 257.613C631.031 257.444 631.331 257.223 631.617 256.949C631.917 256.663 632.197 256.344 632.457 255.992C632.73 255.628 632.978 255.263 633.199 254.898C633.421 254.534 633.616 254.182 633.785 253.844C633.954 253.505 634.098 253.212 634.215 252.965C634.28 252.822 634.371 252.711 634.488 252.633C634.618 252.555 634.755 252.516 634.898 252.516C635.12 252.516 635.296 252.6 635.426 252.77C635.569 252.926 635.641 253.095 635.641 253.277C635.641 253.368 635.621 253.46 635.582 253.551ZM641.852 263.492C641.852 263.805 641.793 264.104 641.676 264.391C641.559 264.69 641.383 264.957 641.148 265.191C640.914 265.426 640.621 265.615 640.27 265.758C639.931 265.901 639.54 265.973 639.098 265.973C638.837 265.973 638.557 265.94 638.258 265.875C637.958 265.823 637.685 265.738 637.438 265.621C637.19 265.504 636.982 265.361 636.812 265.191C636.656 265.035 636.578 264.853 636.578 264.645C636.578 264.449 636.643 264.293 636.773 264.176C636.917 264.072 637.073 264.02 637.242 264.02C637.346 264.02 637.451 264.052 637.555 264.117C637.659 264.195 637.776 264.273 637.906 264.352C638.049 264.443 638.212 264.521 638.395 264.586C638.59 264.664 638.818 264.703 639.078 264.703C639.469 264.703 639.807 264.599 640.094 264.391C640.38 264.195 640.523 263.889 640.523 263.473C640.523 263.238 640.478 263.043 640.387 262.887C640.309 262.73 640.204 262.6 640.074 262.496C639.957 262.405 639.82 262.34 639.664 262.301C639.508 262.262 639.365 262.242 639.234 262.242C639.013 262.242 638.831 262.262 638.688 262.301C638.544 262.34 638.427 262.359 638.336 262.359C638.167 262.359 638.023 262.307 637.906 262.203C637.802 262.112 637.75 261.975 637.75 261.793C637.75 261.689 637.763 261.591 637.789 261.5C637.815 261.422 637.841 261.344 637.867 261.266L638.355 259.938C637.704 259.872 637.125 259.69 636.617 259.391C636.109 259.104 635.68 258.727 635.328 258.258C634.99 257.776 634.729 257.216 634.547 256.578C634.365 255.94 634.273 255.25 634.273 254.508C634.273 253.727 634.384 252.997 634.605 252.32C634.827 251.63 635.126 251.031 635.504 250.523C635.895 250.016 636.344 249.618 636.852 249.332C637.359 249.033 637.9 248.883 638.473 248.883C638.902 248.883 639.293 248.961 639.645 249.117C639.996 249.26 640.289 249.456 640.523 249.703C640.771 249.951 640.96 250.224 641.09 250.523C641.233 250.823 641.305 251.122 641.305 251.422C641.305 251.708 641.266 251.975 641.188 252.223C641.122 252.47 641.031 252.691 640.914 252.887C640.81 253.069 640.686 253.219 640.543 253.336C640.4 253.44 640.257 253.492 640.113 253.492C639.892 253.492 639.71 253.421 639.566 253.277C639.436 253.134 639.371 252.958 639.371 252.75C639.371 252.646 639.391 252.555 639.43 252.477C639.482 252.398 639.534 252.32 639.586 252.242C639.651 252.151 639.703 252.047 639.742 251.93C639.794 251.799 639.82 251.637 639.82 251.441C639.82 251.168 639.69 250.921 639.43 250.699C639.182 250.478 638.863 250.367 638.473 250.367C638.108 250.367 637.757 250.478 637.418 250.699C637.092 250.921 636.806 251.22 636.559 251.598C636.311 251.962 636.109 252.398 635.953 252.906C635.81 253.401 635.738 253.928 635.738 254.488C635.738 255.022 635.803 255.53 635.934 256.012C636.064 256.493 636.259 256.923 636.52 257.301C636.78 257.665 637.105 257.958 637.496 258.18C637.9 258.401 638.375 258.512 638.922 258.512C639.625 258.512 640.276 258.388 640.875 258.141C641.474 257.88 642.021 257.555 642.516 257.164C643.01 256.773 643.447 256.35 643.824 255.895C644.202 255.426 644.521 254.99 644.781 254.586C645.055 254.169 645.263 253.811 645.406 253.512C645.562 253.199 645.654 253.004 645.68 252.926C645.732 252.796 645.816 252.698 645.934 252.633C646.064 252.555 646.201 252.516 646.344 252.516C646.565 252.516 646.741 252.594 646.871 252.75C647.014 252.906 647.086 253.082 647.086 253.277C647.086 253.355 647.06 253.46 647.008 253.59C646.943 253.733 646.819 253.98 646.637 254.332C646.467 254.671 646.233 255.061 645.934 255.504C645.647 255.934 645.302 256.389 644.898 256.871C644.508 257.353 644.052 257.809 643.531 258.238C643.023 258.655 642.451 259.013 641.812 259.312C641.188 259.625 640.497 259.827 639.742 259.918C639.716 259.983 639.69 260.048 639.664 260.113C639.651 260.191 639.638 260.243 639.625 260.27L639.352 261.031C639.651 261.031 639.951 261.077 640.25 261.168C640.549 261.272 640.816 261.428 641.051 261.637C641.285 261.845 641.474 262.099 641.617 262.398C641.773 262.711 641.852 263.076 641.852 263.492ZM660.777 253.551C660.725 253.655 660.615 253.876 660.445 254.215C660.289 254.54 660.081 254.918 659.82 255.348C659.573 255.777 659.28 256.227 658.941 256.695C658.603 257.164 658.225 257.594 657.809 257.984C657.392 258.375 656.943 258.701 656.461 258.961C655.979 259.208 655.471 259.332 654.938 259.332C654.182 259.332 653.544 259.091 653.023 258.609C652.516 258.128 652.145 257.522 651.91 256.793C651.467 257.535 650.94 258.128 650.328 258.57C649.716 259 649.104 259.215 648.492 259.215C648.01 259.215 647.574 259.13 647.184 258.961C646.793 258.779 646.461 258.531 646.188 258.219C645.914 257.893 645.699 257.516 645.543 257.086C645.4 256.656 645.328 256.188 645.328 255.68C645.328 254.664 645.497 253.772 645.836 253.004C646.188 252.223 646.63 251.572 647.164 251.051C647.698 250.53 648.284 250.139 648.922 249.879C649.573 249.618 650.198 249.488 650.797 249.488C651.201 249.488 651.572 249.547 651.91 249.664C652.249 249.768 652.535 249.885 652.77 250.016C653.017 250.146 653.206 250.27 653.336 250.387C653.466 250.491 653.538 250.549 653.551 250.562C653.694 250.732 653.766 250.908 653.766 251.09C653.766 251.285 653.694 251.461 653.551 251.617C653.408 251.76 653.238 251.832 653.043 251.832C652.835 251.832 652.659 251.76 652.516 251.617C652.49 251.591 652.431 251.546 652.34 251.48C652.249 251.402 652.125 251.324 651.969 251.246C651.812 251.168 651.624 251.103 651.402 251.051C651.194 250.986 650.953 250.953 650.68 250.953C650.276 250.953 649.846 251.044 649.391 251.227C648.935 251.409 648.518 251.695 648.141 252.086C647.763 252.464 647.444 252.945 647.184 253.531C646.936 254.104 646.812 254.788 646.812 255.582C646.812 255.829 646.839 256.083 646.891 256.344C646.943 256.591 647.034 256.819 647.164 257.027C647.294 257.236 647.47 257.405 647.691 257.535C647.913 257.665 648.186 257.73 648.512 257.73C648.746 257.73 649.013 257.652 649.312 257.496C649.625 257.34 649.918 257.099 650.191 256.773C650.478 256.448 650.732 256.038 650.953 255.543C651.188 255.048 651.35 254.462 651.441 253.785C651.467 253.603 651.552 253.453 651.695 253.336C651.839 253.206 652.008 253.141 652.203 253.141C652.385 253.141 652.542 253.212 652.672 253.355C652.815 253.499 652.893 253.661 652.906 253.844C652.919 254.091 652.945 254.443 652.984 254.898C653.023 255.341 653.108 255.784 653.238 256.227C653.382 256.669 653.59 257.053 653.863 257.379C654.137 257.704 654.514 257.867 654.996 257.867C655.309 257.867 655.615 257.783 655.914 257.613C656.227 257.444 656.526 257.223 656.812 256.949C657.112 256.663 657.392 256.344 657.652 255.992C657.926 255.628 658.173 255.263 658.395 254.898C658.616 254.534 658.811 254.182 658.98 253.844C659.15 253.505 659.293 253.212 659.41 252.965C659.475 252.822 659.566 252.711 659.684 252.633C659.814 252.555 659.951 252.516 660.094 252.516C660.315 252.516 660.491 252.6 660.621 252.77C660.764 252.926 660.836 253.095 660.836 253.277C660.836 253.368 660.816 253.46 660.777 253.551ZM653.629 245.602C653.629 245.836 653.577 246.057 653.473 246.266C653.382 246.474 653.251 246.656 653.082 246.812C652.913 246.969 652.704 247.092 652.457 247.184C652.223 247.275 651.962 247.32 651.676 247.32C651.415 247.32 651.188 247.281 650.992 247.203C650.797 247.125 650.621 247.021 650.465 246.891C650.322 246.76 650.198 246.624 650.094 246.48C649.99 246.337 649.892 246.194 649.801 246.051C649.684 245.868 649.566 245.712 649.449 245.582C649.345 245.452 649.215 245.387 649.059 245.387C648.941 245.387 648.844 245.413 648.766 245.465C648.701 245.504 648.655 245.549 648.629 245.602C648.603 245.654 648.583 245.712 648.57 245.777C648.57 245.829 648.57 245.862 648.57 245.875C648.57 246.005 648.583 246.122 648.609 246.227C648.648 246.318 648.694 246.415 648.746 246.52C648.772 246.572 648.792 246.624 648.805 246.676C648.818 246.728 648.824 246.786 648.824 246.852C648.824 247.021 648.759 247.171 648.629 247.301C648.499 247.418 648.329 247.477 648.121 247.477C648.017 247.477 647.906 247.457 647.789 247.418C647.672 247.366 647.568 247.281 647.477 247.164C647.385 247.047 647.307 246.884 647.242 246.676C647.19 246.467 647.164 246.201 647.164 245.875C647.164 245.667 647.203 245.458 647.281 245.25C647.372 245.029 647.496 244.84 647.652 244.684C647.809 244.514 648.004 244.378 648.238 244.273C648.473 244.169 648.746 244.117 649.059 244.117C649.332 244.117 649.566 244.163 649.762 244.254C649.957 244.332 650.133 244.436 650.289 244.566C650.445 244.684 650.576 244.82 650.68 244.977C650.797 245.133 650.901 245.276 650.992 245.406C651.122 245.589 651.24 245.745 651.344 245.875C651.461 246.005 651.598 246.07 651.754 246.07C651.962 246.07 652.092 246.018 652.145 245.914C652.197 245.797 652.223 245.706 652.223 245.641C652.223 245.484 652.197 245.341 652.145 245.211C652.092 245.068 652.04 244.938 651.988 244.82C651.897 244.664 651.852 244.534 651.852 244.43C651.852 244.273 651.917 244.13 652.047 244C652.177 243.87 652.346 243.805 652.555 243.805C652.802 243.805 653.043 243.954 653.277 244.254C653.512 244.553 653.629 245.003 653.629 245.602ZM668.434 256.852C668.108 256.852 667.822 256.826 667.574 256.773C667.379 257.164 667.145 257.529 666.871 257.867C666.598 258.193 666.279 258.479 665.914 258.727C665.562 258.974 665.165 259.169 664.723 259.312C664.28 259.456 663.798 259.527 663.277 259.527C662.665 259.527 662.105 259.417 661.598 259.195C661.09 258.987 660.647 258.694 660.27 258.316C659.892 257.926 659.599 257.464 659.391 256.93C659.182 256.383 659.078 255.784 659.078 255.133C659.078 254.299 659.228 253.577 659.527 252.965C659.827 252.34 660.172 251.826 660.562 251.422C660.953 251.005 661.344 250.699 661.734 250.504C662.125 250.296 662.418 250.191 662.613 250.191C662.835 250.191 662.997 250.25 663.102 250.367C663.219 250.484 663.277 250.641 663.277 250.836C663.277 251.057 663.206 251.227 663.062 251.344C662.932 251.448 662.763 251.552 662.555 251.656C662.346 251.76 662.125 251.91 661.891 252.105C661.656 252.288 661.435 252.522 661.227 252.809C661.031 253.095 660.868 253.434 660.738 253.824C660.608 254.215 660.543 254.651 660.543 255.133C660.543 255.562 660.608 255.966 660.738 256.344C660.868 256.708 661.057 257.027 661.305 257.301C661.552 257.561 661.845 257.77 662.184 257.926C662.522 258.069 662.9 258.141 663.316 258.141C664.059 258.141 664.671 257.971 665.152 257.633C665.647 257.281 666.025 256.839 666.285 256.305C665.517 255.901 664.885 255.328 664.391 254.586C663.896 253.844 663.648 253.01 663.648 252.086C663.648 251.344 663.824 250.738 664.176 250.27C664.54 249.801 665.016 249.566 665.602 249.566C665.953 249.566 666.285 249.651 666.598 249.82C666.91 249.99 667.184 250.257 667.418 250.621C667.665 250.986 667.861 251.454 668.004 252.027C668.147 252.6 668.219 253.284 668.219 254.078C668.219 254.495 668.167 254.931 668.062 255.387C668.141 255.4 668.219 255.406 668.297 255.406C668.375 255.406 668.46 255.406 668.551 255.406C668.993 255.406 669.391 255.354 669.742 255.25C670.094 255.146 670.413 254.99 670.699 254.781C670.986 254.573 671.24 254.306 671.461 253.98C671.695 253.655 671.917 253.277 672.125 252.848C672.164 252.77 672.249 252.698 672.379 252.633C672.509 252.555 672.639 252.516 672.77 252.516C672.939 252.516 673.095 252.587 673.238 252.73C673.395 252.861 673.473 253.036 673.473 253.258C673.473 253.362 673.447 253.479 673.395 253.609C673.342 253.727 673.29 253.837 673.238 253.941C673.017 254.332 672.757 254.71 672.457 255.074C672.171 255.426 671.826 255.738 671.422 256.012C671.031 256.272 670.589 256.48 670.094 256.637C669.599 256.793 669.046 256.865 668.434 256.852ZM665.094 251.93C665.094 252.177 665.126 252.438 665.191 252.711C665.257 252.984 665.354 253.258 665.484 253.531C665.628 253.792 665.797 254.046 665.992 254.293C666.201 254.527 666.441 254.729 666.715 254.898C666.754 254.625 666.773 254.358 666.773 254.098C666.773 253.746 666.747 253.388 666.695 253.023C666.643 252.659 666.565 252.327 666.461 252.027C666.37 251.715 666.253 251.467 666.109 251.285C665.966 251.09 665.797 250.992 665.602 250.992C665.523 250.992 665.419 251.051 665.289 251.168C665.159 251.285 665.094 251.539 665.094 251.93Z" fill="#E1E1E6"/>
</g>
<defs>
<radialGradient id="paint0_radial_1914_438" cx="0" cy="0" r="1" gradientUnits="userSpaceOnUse" gradientTransform="translate(398.379 207.923) rotate(90) scale(399.077 673.786)">
<stop stop-color="#D9D9D9"/>
<stop offset="1" stop-color="#D9D9D9" stop-opacity="0"/>
</radialGradient>
<clipPath id="clip0_1914_438">
<rect width="1584" height="396" fill="white"/>
</clipPath>
<clipPath id="clip1_1914_438">
<rect width="1208" height="681.935" fill="white" transform="translate(-163 -130)"/>
</clipPath>
<clipPath id="clip2_1914_438">
<rect width="44" height="44" fill="white" transform="translate(1011 135)"/>
</clipPath>
</defs>
</svg>
