<svg width="1584" height="396" viewBox="0 0 1584 396" fill="none" xmlns="http://www.w3.org/2000/svg">
<g clip-path="url(#clip0_1911_438)">
<path d="M1584 0H0V396H1584V0Z" fill="#0D1117"/>
<mask id="mask0_1911_438" style="mask-type:alpha" maskUnits="userSpaceOnUse" x="-163" y="-130" width="1208" height="682">
<g opacity="0.1" clip-path="url(#clip1_1911_438)">
<path d="M1028.88 551.353V-129.911" stroke="#727272" stroke-dasharray="6 6"/>
<path d="M987.322 551.353V-129.911" stroke="#727272" stroke-dasharray="6 6"/>
<path d="M945.762 551.353V-129.911" stroke="#727272" stroke-dasharray="6 6"/>
<path d="M904.203 551.353V-129.911" stroke="#727272" stroke-dasharray="6 6"/>
<path d="M862.644 551.353V-129.911" stroke="#727272" stroke-dasharray="6 6"/>
<path d="M821.075 551.353V-129.911" stroke="#727272" stroke-dasharray="6 6"/>
<path d="M779.516 551.353V-129.911" stroke="#727272" stroke-dasharray="6 6"/>
<path d="M737.956 551.353V-129.911" stroke="#727272" stroke-dasharray="6 6"/>
<path d="M696.396 551.353V-129.911" stroke="#727272" stroke-dasharray="6 6"/>
<path d="M654.833 551.353V-129.911" stroke="#727272" stroke-dasharray="6 6"/>
<path d="M613.273 551.353V-129.911" stroke="#727272" stroke-dasharray="6 6"/>
<path d="M571.713 551.353V-129.911" stroke="#727272" stroke-dasharray="6 6"/>
<path d="M530.149 551.353V-129.911" stroke="#727272" stroke-dasharray="6 6"/>
<path d="M488.583 551.353V-129.911" stroke="#727272" stroke-dasharray="6 6"/>
<path d="M447.003 551.363V-129.901" stroke="#727272" stroke-dasharray="6 6"/>
<path d="M405.442 551.363V-129.901" stroke="#727272" stroke-dasharray="6 6"/>
<path d="M363.879 551.363V-129.901" stroke="#727272" stroke-dasharray="6 6"/>
<path d="M322.319 551.363V-129.901" stroke="#727272" stroke-dasharray="6 6"/>
<path d="M280.758 551.363V-129.901" stroke="#727272" stroke-dasharray="6 6"/>
<path d="M239.195 551.363V-129.901" stroke="#727272" stroke-dasharray="6 6"/>
<path d="M197.635 551.363V-129.901" stroke="#727272" stroke-dasharray="6 6"/>
<path d="M156.069 551.363L156.07 -129.901" stroke="#727272" stroke-dasharray="6 6"/>
<path d="M114.512 551.363V-129.901" stroke="#727272" stroke-dasharray="6 6"/>
<path d="M72.955 551.363V-129.901" stroke="#727272" stroke-dasharray="6 6"/>
<path d="M31.3857 551.363L31.3866 -129.901" stroke="#727272" stroke-dasharray="6 6"/>
<path d="M-162.675 355.678H1141.52" stroke="#727272" stroke-dasharray="6 6"/>
<path d="M-162.675 314.138H1141.52" stroke="#727272" stroke-dasharray="6 6"/>
<path d="M-162.675 272.595L1141.52 272.596" stroke="#727272" stroke-dasharray="6 6"/>
<path d="M-162.675 231.055H1141.52" stroke="#727272" stroke-dasharray="6 6"/>
<path d="M-162.675 189.516H1141.52" stroke="#727272" stroke-dasharray="6 6"/>
<path d="M-162.675 147.975L1141.52 147.976" stroke="#727272" stroke-dasharray="6 6"/>
<path d="M-162.675 106.434H1141.52" stroke="#727272" stroke-dasharray="6 6"/>
<path d="M-162.675 64.895H1141.52" stroke="#727272" stroke-dasharray="6 6"/>
<path d="M-162.675 23.3535L1141.52 23.3544" stroke="#727272" stroke-dasharray="6 6"/>
</g>
</mask>
<g mask="url(#mask0_1911_438)">
<ellipse cx="398.379" cy="207.923" rx="521.194" ry="308.698" fill="url(#paint0_radial_1911_438)"/>
</g>
<path d="M304.046 220.932L317.941 162.238H325.703L327.476 172.012L312.671 232H304.334L304.046 220.932ZM296.907 162.238L308.407 220.932L307.448 232H298.153L282.677 162.238H296.907ZM339.694 220.692L351.05 162.238H365.28L349.852 232H340.557L339.694 220.692ZM330.064 162.238L344.054 221.172L343.671 232H335.334L320.433 171.964L322.349 162.238H330.064ZM368.49 206.606V205.6C368.49 201.798 369.033 198.301 370.119 195.107C371.205 191.88 372.786 189.085 374.863 186.722C376.939 184.358 379.494 182.521 382.529 181.212C385.563 179.87 389.045 179.199 392.974 179.199C396.903 179.199 400.401 179.87 403.467 181.212C406.534 182.521 409.105 184.358 411.181 186.722C413.289 189.085 414.887 191.88 415.973 195.107C417.059 198.301 417.602 201.798 417.602 205.6V206.606C417.602 210.375 417.059 213.873 415.973 217.099C414.887 220.293 413.289 223.088 411.181 225.484C409.105 227.847 406.55 229.684 403.515 230.994C400.481 232.303 396.999 232.958 393.07 232.958C389.141 232.958 385.643 232.303 382.577 230.994C379.542 229.684 376.971 227.847 374.863 225.484C372.786 223.088 371.205 220.293 370.119 217.099C369.033 213.873 368.49 210.375 368.49 206.606ZM382.289 205.6V206.606C382.289 208.778 382.481 210.806 382.864 212.691C383.248 214.575 383.854 216.236 384.685 217.674C385.547 219.079 386.665 220.181 388.039 220.98C389.412 221.778 391.089 222.178 393.07 222.178C394.986 222.178 396.631 221.778 398.005 220.98C399.378 220.181 400.481 219.079 401.311 217.674C402.142 216.236 402.748 214.575 403.132 212.691C403.547 210.806 403.755 208.778 403.755 206.606V205.6C403.755 203.491 403.547 201.511 403.132 199.658C402.748 197.774 402.126 196.113 401.263 194.675C400.433 193.206 399.331 192.056 397.957 191.226C396.584 190.395 394.923 189.98 392.974 189.98C391.026 189.98 389.365 190.395 387.991 191.226C386.649 192.056 385.547 193.206 384.685 194.675C383.854 196.113 383.248 197.774 382.864 199.658C382.481 201.511 382.289 203.491 382.289 205.6ZM439.881 191.465V232H426.082V180.158H439.067L439.881 191.465ZM455.501 179.822L455.262 192.615C454.591 192.519 453.776 192.439 452.818 192.375C451.892 192.28 451.045 192.232 450.279 192.232C448.33 192.232 446.637 192.487 445.2 192.998C443.794 193.477 442.613 194.196 441.654 195.154C440.728 196.113 440.025 197.279 439.546 198.652C439.099 200.026 438.843 201.591 438.779 203.348L436 202.485C436 199.131 436.336 196.049 437.007 193.238C437.677 190.395 438.652 187.92 439.929 185.811C441.239 183.703 442.836 182.074 444.721 180.924C446.605 179.774 448.761 179.199 451.189 179.199C451.956 179.199 452.738 179.263 453.537 179.391C454.335 179.487 454.99 179.63 455.501 179.822ZM475.817 158.357V232H462.018V158.357H475.817ZM508.494 180.158L485.974 205.839L473.9 218.057L468.869 208.091L478.452 195.921L491.916 180.158H508.494ZM494.168 232L478.835 208.043L488.37 199.706L510.075 232H494.168ZM542.464 217.674C542.464 216.684 542.177 215.789 541.602 214.991C541.027 214.192 539.957 213.457 538.392 212.787C536.859 212.084 534.639 211.445 531.732 210.87C529.112 210.295 526.669 209.576 524.401 208.714C522.165 207.82 520.217 206.75 518.556 205.504C516.926 204.258 515.649 202.789 514.722 201.096C513.796 199.371 513.333 197.406 513.333 195.202C513.333 193.03 513.796 190.986 514.722 189.069C515.681 187.153 517.038 185.46 518.795 183.991C520.584 182.489 522.756 181.323 525.311 180.493C527.899 179.63 530.805 179.199 534.032 179.199C538.536 179.199 542.401 179.918 545.627 181.355C548.885 182.793 551.376 184.773 553.101 187.297C554.858 189.788 555.736 192.631 555.736 195.825H541.937C541.937 194.484 541.65 193.286 541.075 192.232C540.532 191.146 539.669 190.299 538.488 189.692C537.338 189.053 535.836 188.734 533.984 188.734C532.45 188.734 531.125 189.006 530.007 189.549C528.889 190.06 528.026 190.762 527.42 191.657C526.845 192.519 526.557 193.477 526.557 194.532C526.557 195.33 526.717 196.049 527.036 196.688C527.388 197.295 527.947 197.854 528.713 198.365C529.48 198.876 530.47 199.355 531.684 199.802C532.93 200.217 534.463 200.601 536.284 200.952C540.021 201.719 543.359 202.725 546.298 203.971C549.236 205.184 551.568 206.845 553.293 208.954C555.018 211.03 555.88 213.761 555.88 217.147C555.88 219.447 555.369 221.555 554.347 223.471C553.325 225.388 551.855 227.065 549.939 228.502C548.022 229.908 545.723 231.01 543.039 231.808C540.388 232.575 537.402 232.958 534.08 232.958C529.256 232.958 525.168 232.096 521.814 230.371C518.492 228.646 515.968 226.458 514.243 223.807C512.55 221.124 511.704 218.377 511.704 215.566H524.784C524.848 217.45 525.327 218.968 526.222 220.117C527.148 221.267 528.314 222.098 529.719 222.609C531.157 223.12 532.706 223.376 534.367 223.376C536.156 223.376 537.641 223.136 538.823 222.657C540.005 222.146 540.899 221.475 541.506 220.644C542.145 219.782 542.464 218.792 542.464 217.674ZM578.304 158.405V232H564.505V158.405H578.304ZM576.339 204.258H572.554C572.586 200.649 573.065 197.327 573.992 194.292C574.918 191.226 576.243 188.574 577.968 186.338C579.693 184.07 581.754 182.314 584.149 181.068C586.577 179.822 589.26 179.199 592.199 179.199C594.754 179.199 597.07 179.567 599.146 180.301C601.254 181.004 603.059 182.154 604.56 183.751C606.094 185.316 607.276 187.376 608.106 189.932C608.937 192.487 609.352 195.586 609.352 199.227V232H595.457V199.131C595.457 196.831 595.121 195.027 594.451 193.717C593.812 192.375 592.869 191.433 591.624 190.89C590.41 190.315 588.909 190.028 587.12 190.028C585.139 190.028 583.446 190.395 582.041 191.13C580.667 191.864 579.565 192.887 578.735 194.196C577.904 195.474 577.298 196.975 576.914 198.7C576.531 200.425 576.339 202.278 576.339 204.258ZM617.641 206.606V205.6C617.641 201.798 618.184 198.301 619.27 195.107C620.356 191.88 621.937 189.085 624.013 186.722C626.09 184.358 628.645 182.521 631.679 181.212C634.714 179.87 638.196 179.199 642.125 179.199C646.054 179.199 649.551 179.87 652.618 181.212C655.684 182.521 658.256 184.358 660.332 186.722C662.44 189.085 664.037 191.88 665.123 195.107C666.209 198.301 666.752 201.798 666.752 205.6V206.606C666.752 210.375 666.209 213.873 665.123 217.099C664.037 220.293 662.44 223.088 660.332 225.484C658.256 227.847 655.7 229.684 652.666 230.994C649.631 232.303 646.149 232.958 642.22 232.958C638.292 232.958 634.794 232.303 631.727 230.994C628.693 229.684 626.122 227.847 624.013 225.484C621.937 223.088 620.356 220.293 619.27 217.099C618.184 213.873 617.641 210.375 617.641 206.606ZM631.44 205.6V206.606C631.44 208.778 631.632 210.806 632.015 212.691C632.398 214.575 633.005 216.236 633.836 217.674C634.698 219.079 635.816 220.181 637.19 220.98C638.563 221.778 640.24 222.178 642.22 222.178C644.137 222.178 645.782 221.778 647.156 220.98C648.529 220.181 649.631 219.079 650.462 217.674C651.292 216.236 651.899 214.575 652.282 212.691C652.698 210.806 652.905 208.778 652.905 206.606V205.6C652.905 203.491 652.698 201.511 652.282 199.658C651.899 197.774 651.276 196.113 650.414 194.675C649.583 193.206 648.481 192.056 647.108 191.226C645.734 190.395 644.073 189.98 642.125 189.98C640.176 189.98 638.515 190.395 637.142 191.226C635.8 192.056 634.698 193.206 633.836 194.675C633.005 196.113 632.398 197.774 632.015 199.658C631.632 201.511 631.44 203.491 631.44 205.6ZM689.032 190.124V251.932H675.233V180.158H688.026L689.032 190.124ZM721.853 205.504V206.51C721.853 210.279 721.406 213.777 720.511 217.003C719.649 220.229 718.371 223.04 716.678 225.436C714.985 227.8 712.877 229.652 710.354 230.994C707.862 232.303 704.987 232.958 701.729 232.958C698.567 232.958 695.82 232.319 693.488 231.042C691.156 229.764 689.192 227.975 687.595 225.675C686.029 223.344 684.768 220.644 683.809 217.578C682.851 214.512 682.117 211.221 681.605 207.708V205.073C682.117 201.303 682.851 197.854 683.809 194.723C684.768 191.561 686.029 188.83 687.595 186.53C689.192 184.198 691.14 182.393 693.44 181.116C695.772 179.838 698.503 179.199 701.633 179.199C704.923 179.199 707.814 179.822 710.306 181.068C712.829 182.314 714.937 184.102 716.63 186.434C718.355 188.766 719.649 191.545 720.511 194.771C721.406 197.997 721.853 201.575 721.853 205.504ZM708.006 206.51V205.504C708.006 203.3 707.814 201.271 707.431 199.419C707.08 197.534 706.505 195.889 705.706 194.484C704.939 193.078 703.917 191.992 702.64 191.226C701.394 190.427 699.877 190.028 698.088 190.028C696.203 190.028 694.59 190.331 693.248 190.938C691.939 191.545 690.869 192.423 690.038 193.573C689.208 194.723 688.585 196.097 688.17 197.694C687.754 199.291 687.499 201.096 687.403 203.108V209.768C687.563 212.132 688.01 214.256 688.745 216.141C689.479 217.993 690.613 219.463 692.146 220.549C693.68 221.635 695.692 222.178 698.184 222.178C700.004 222.178 701.538 221.778 702.783 220.98C704.029 220.149 705.035 219.015 705.802 217.578C706.6 216.141 707.159 214.48 707.479 212.595C707.83 210.71 708.006 208.682 708.006 206.51ZM758.459 217.674C758.459 216.684 758.171 215.789 757.596 214.991C757.021 214.192 755.951 213.457 754.386 212.787C752.853 212.084 750.633 211.445 747.726 210.87C745.107 210.295 742.663 209.576 740.395 208.714C738.159 207.82 736.211 206.75 734.55 205.504C732.921 204.258 731.643 202.789 730.717 201.096C729.791 199.371 729.327 197.406 729.327 195.202C729.327 193.03 729.791 190.986 730.717 189.069C731.675 187.153 733.033 185.46 734.79 183.991C736.578 182.489 738.75 181.323 741.306 180.493C743.893 179.63 746.8 179.199 750.026 179.199C754.53 179.199 758.395 179.918 761.621 181.355C764.879 182.793 767.371 184.773 769.096 187.297C770.852 189.788 771.731 192.631 771.731 195.825H757.932C757.932 194.484 757.644 193.286 757.069 192.232C756.526 191.146 755.664 190.299 754.482 189.692C753.332 189.053 751.831 188.734 749.978 188.734C748.445 188.734 747.119 189.006 746.001 189.549C744.883 190.06 744.021 190.762 743.414 191.657C742.839 192.519 742.552 193.477 742.552 194.532C742.552 195.33 742.711 196.049 743.031 196.688C743.382 197.295 743.941 197.854 744.708 198.365C745.474 198.876 746.464 199.355 747.678 199.802C748.924 200.217 750.457 200.601 752.278 200.952C756.015 201.719 759.353 202.725 762.292 203.971C765.231 205.184 767.562 206.845 769.287 208.954C771.012 211.03 771.875 213.761 771.875 217.147C771.875 219.447 771.364 221.555 770.341 223.471C769.319 225.388 767.85 227.065 765.933 228.502C764.017 229.908 761.717 231.01 759.034 231.808C756.383 232.575 753.396 232.958 750.074 232.958C745.251 232.958 741.162 232.096 737.808 230.371C734.486 228.646 731.963 226.458 730.238 223.807C728.545 221.124 727.698 218.377 727.698 215.566H740.779C740.843 217.45 741.322 218.968 742.216 220.117C743.142 221.267 744.308 222.098 745.714 222.609C747.151 223.12 748.7 223.376 750.361 223.376C752.15 223.376 753.636 223.136 754.817 222.657C755.999 222.146 756.894 221.475 757.501 220.644C758.139 219.782 758.459 218.792 758.459 217.674Z" fill="#E1E1E6"/>
<g clip-path="url(#clip2_1911_438)">
<path d="M1268.92 424.028C1268.92 448.756 1260.06 468.806 1235.33 468.806H1156.97C1112.19 468.806 1112.19 312.083 1156.97 312.083H1235.33C1260.06 312.083 1268.92 332.133 1268.92 356.861V424.028Z" fill="#553788"/>
<path d="M1481.61 446.417H1470.42V334.472H1481.61C1484.58 334.472 1487.43 333.293 1489.53 331.194C1491.63 329.094 1492.81 326.247 1492.81 323.278C1492.81 320.309 1491.63 317.462 1489.53 315.362C1487.43 313.263 1484.58 312.083 1481.61 312.083H1212.94C1168.17 312.083 1168.17 468.806 1212.94 468.806H1481.61C1484.58 468.806 1487.43 467.626 1489.53 465.527C1491.63 463.428 1492.81 460.58 1492.81 457.611C1492.81 454.642 1491.63 451.795 1489.53 449.696C1487.43 447.596 1484.58 446.417 1481.61 446.417Z" fill="#9266CC"/>
<path d="M1483.54 446.417H1224.14C1201.75 446.417 1201.75 334.472 1224.14 334.472H1483.54C1495.9 334.472 1495.9 446.417 1483.54 446.417Z" fill="#CCD6DD"/>
<path d="M1229.74 356.861H1491.13C1489.61 343.708 1487.1 334.472 1483.54 334.472H1224.14C1205.66 334.472 1202.44 410.684 1214.48 437.327C1210.09 404.202 1215.17 356.861 1229.74 356.861Z" fill="#99AAB5"/>
<path d="M1235.33 166.556C1235.33 178.432 1230.62 189.821 1222.22 198.219C1213.82 206.616 1202.43 211.334 1190.56 211.334H1145.78C1101 211.334 1101 88.1948 1145.78 88.1948H1190.56C1202.43 88.1948 1213.82 92.9125 1222.22 101.31C1230.62 109.707 1235.33 121.097 1235.33 132.973V166.556Z" fill="#226699"/>
<path d="M1448.03 188.945H1436.83V110.584H1448.03C1451 110.584 1453.84 109.404 1455.94 107.305C1458.04 105.206 1459.22 102.358 1459.22 99.3893C1459.22 96.4203 1458.04 93.573 1455.94 91.4736C1453.84 89.3742 1451 88.1948 1448.03 88.1948H1179.36C1134.58 88.1948 1134.58 211.334 1179.36 211.334H1448.03C1451 211.334 1453.84 210.154 1455.94 208.055C1458.04 205.956 1459.22 203.108 1459.22 200.139C1459.22 197.17 1458.04 194.323 1455.94 192.224C1453.84 190.124 1451 188.945 1448.03 188.945Z" fill="#55ACEE"/>
<path d="M1449.95 188.945H1190.56C1168.17 188.945 1168.17 110.583 1190.56 110.583H1449.95C1462.31 110.583 1462.31 188.945 1449.95 188.945Z" fill="#CCD6DD"/>
<path d="M1190.55 132.972H1458.38C1457.11 120.379 1454.31 110.583 1449.95 110.583H1190.55C1177.2 110.583 1171.87 138.446 1174.46 160.958C1176.2 145.756 1181.52 132.972 1190.55 132.972Z" fill="#99AAB5"/>
<path d="M1324.89 267.306C1324.89 279.182 1320.17 290.571 1311.77 298.968C1303.38 307.366 1291.99 312.083 1280.11 312.083H1168.17C1123.39 312.083 1123.39 211.333 1168.17 211.333H1280.11C1291.99 211.333 1303.38 216.051 1311.77 224.449C1320.17 232.846 1324.89 244.235 1324.89 256.111V267.306Z" fill="#F4900C"/>
<path d="M1492.81 289.695H1481.61V233.722H1492.81C1495.77 233.722 1498.62 232.543 1500.72 230.444C1502.82 228.344 1504 225.497 1504 222.528C1504 219.559 1502.82 216.712 1500.72 214.612C1498.62 212.513 1495.77 211.333 1492.81 211.333H1268.92C1224.14 211.333 1224.14 312.083 1268.92 312.083H1492.81C1495.77 312.083 1498.62 310.904 1500.72 308.805C1502.82 306.705 1504 303.858 1504 300.889C1504 297.92 1502.82 295.073 1500.72 292.973C1498.62 290.874 1495.77 289.695 1492.81 289.695Z" fill="#FFAC33"/>
<path d="M1494.73 289.694H1280.11C1257.72 289.694 1257.72 233.722 1280.11 233.722H1494.73C1507.09 233.722 1507.09 289.694 1494.73 289.694Z" fill="#CCD6DD"/>
<path d="M1280.11 256.111H1503.82C1503.09 244.223 1500.08 233.722 1494.73 233.722H1280.11C1265.85 233.722 1260.71 256.413 1264.63 272.903C1266.84 263.511 1271.98 256.111 1280.11 256.111Z" fill="#99AAB5"/>
</g>
</g>
<defs>
<radialGradient id="paint0_radial_1911_438" cx="0" cy="0" r="1" gradientUnits="userSpaceOnUse" gradientTransform="translate(398.379 207.923) rotate(90) scale(399.077 673.786)">
<stop stop-color="#D9D9D9"/>
<stop offset="1" stop-color="#D9D9D9" stop-opacity="0"/>
</radialGradient>
<clipPath id="clip0_1911_438">
<rect width="1584" height="396" fill="white"/>
</clipPath>
<clipPath id="clip1_1911_438">
<rect width="1208" height="681.935" fill="white" transform="translate(-163 -130)"/>
</clipPath>
<clipPath id="clip2_1911_438">
<rect width="403" height="403" fill="white" transform="translate(1101 77)"/>
</clipPath>
</defs>
</svg>
