<svg width="33" height="23" viewBox="0 0 33 23" fill="none" xmlns="http://www.w3.org/2000/svg">
<path fill-rule="evenodd" clip-rule="evenodd" d="M9.19526 3.19526C9.45561 2.93491 9.87772 2.93491 10.1381 3.19526L17 10.0572L23.8619 3.19526C24.1223 2.93491 24.5444 2.93491 24.8047 3.19526C25.0651 3.45561 25.0651 3.87772 24.8047 4.13807L17.9428 11L24.8047 17.8619C25.0651 18.1223 25.0651 18.5444 24.8047 18.8047C24.5444 19.0651 24.1223 19.0651 23.8619 18.8047L17 11.9428L10.1381 18.8047C9.87772 19.0651 9.45561 19.0651 9.19526 18.8047C8.93491 18.5444 8.93491 18.1223 9.19526 17.8619L16.0572 11L9.19526 4.13807C8.93491 3.87772 8.93491 3.45561 9.19526 3.19526Z" fill="#271A45"/>
</svg>
