<svg width="45" height="40" viewBox="0 0 45 40" fill="none" xmlns="http://www.w3.org/2000/svg">
<g clip-path="url(#clip0_2802_44)">
<path d="M1.26258 6.23769C0.579217 5.55408 0.579139 4.44622 1.26235 3.76252C1.26241 3.76246 1.26247 3.7624 1.26253 3.76233C1.26256 3.76231 1.26258 3.76229 1.2626 3.76226C1.94615 3.07943 3.05419 3.07945 3.73785 3.76256L18.7352 18.7646L18.7353 18.7647C19.419 19.4483 19.419 20.5516 18.7353 21.2353L18.7353 21.2353L3.73764 36.2353C3.05395 36.9189 1.94604 36.9189 1.26256 36.2353C0.579134 35.5516 0.579147 34.4483 1.2626 33.7646L1.26263 33.7646L14.4914 20.5302L15.0214 19.9999L14.4913 19.4697L1.2626 6.23771C1.2626 6.2377 1.26259 6.23769 1.26258 6.23769ZM42.5 33.25C43.4686 33.25 44.25 34.0314 44.25 35C44.25 35.9686 43.4686 36.75 42.5 36.75H20C19.0314 36.75 18.25 35.9686 18.25 35C18.25 34.0314 19.0314 33.25 20 33.25H42.5Z" fill="#3294F8" stroke="#3294F8" stroke-width="1.5"/>
</g>
<defs>
<clipPath id="clip0_2802_44">
<rect width="45" height="40" fill="white"/>
</clipPath>
</defs>
</svg>
