<svg width="31" height="31" viewBox="0 0 31 31" fill="none" xmlns="http://www.w3.org/2000/svg">
<path d="M15.5001 30.9999H1.29739C1.1264 31.0022 0.956693 30.9701 0.798276 30.9057C0.63986 30.8414 0.495947 30.7459 0.375029 30.625C0.254112 30.5041 0.15864 30.3601 0.094248 30.2017C0.0298557 30.0433 -0.00215271 29.8736 0.000112336 29.7026V15.4999C0.000112336 11.3891 1.63314 7.44663 4.53994 4.53983C7.44674 1.63302 11.3892 0 15.5001 0C17.5355 0 19.5511 0.400918 21.4316 1.17986C23.3122 1.95881 25.0209 3.10053 26.4602 4.53983C27.8995 5.97913 29.0412 7.68783 29.8201 9.56837C30.5991 11.4489 31 13.4645 31 15.4999C31 17.5354 30.5991 19.551 29.8201 21.4315C29.0412 23.3121 27.8995 25.0208 26.4602 26.4601C25.0209 27.8994 23.3122 29.0411 21.4316 29.82C19.5511 30.599 17.5355 30.9999 15.5001 30.9999Z" fill="#8257E5"/>
<path d="M15.3437 23.5625H8.09922C8.012 23.5637 7.92543 23.5473 7.84463 23.5145C7.76382 23.4816 7.69041 23.4329 7.62873 23.3713C7.56706 23.3096 7.51836 23.2362 7.48551 23.1554C7.45267 23.0746 7.43634 22.988 7.4375 22.9008V15.6562C7.4375 13.5594 8.27047 11.5484 9.75318 10.0657C11.2359 8.58298 13.2469 7.75 15.3437 7.75C16.382 7.75 17.4101 7.9545 18.3693 8.35183C19.3286 8.74915 20.2001 9.33152 20.9343 10.0657C21.6685 10.7998 22.2508 11.6714 22.6482 12.6307C23.0455 13.5899 23.25 14.618 23.25 15.6562C23.25 16.6945 23.0455 17.7226 22.6482 18.6818C22.2508 19.6411 21.6685 20.5126 20.9343 21.2468C20.2001 21.981 19.3286 22.5633 18.3693 22.9607C17.4101 23.358 16.382 23.5625 15.3437 23.5625Z" stroke="white" stroke-width="1.5" stroke-linecap="round" stroke-linejoin="round"/>
<path d="M16.3281 16C16.3281 16.5437 15.8874 16.9844 15.3438 16.9844C14.8001 16.9844 14.3594 16.5437 14.3594 16C14.3594 15.4563 14.8001 15.0156 15.3438 15.0156C15.8874 15.0156 16.3281 15.4563 16.3281 16Z" fill="white" stroke="white" stroke-width="0.09375"/>
<path d="M12.2031 16C12.2031 16.5437 11.7624 16.9844 11.2188 16.9844C10.6751 16.9844 10.2344 16.5437 10.2344 16C10.2344 15.4563 10.6751 15.0156 11.2188 15.0156C11.7624 15.0156 12.2031 15.4563 12.2031 16Z" fill="white" stroke="white" stroke-width="0.09375"/>
<path d="M20.4531 16C20.4531 16.5437 20.0124 16.9844 19.4688 16.9844C18.9251 16.9844 18.4844 16.5437 18.4844 16C18.4844 15.4563 18.9251 15.0156 19.4688 15.0156C20.0124 15.0156 20.4531 15.4563 20.4531 16Z" fill="white" stroke="white" stroke-width="0.09375"/>
</svg>
